<mxfile host="65bd71144e">
    <diagram id="u7vr-QenT6KZivplu1lZ" name="ip_header">
        <mxGraphModel dx="993" dy="733" grid="1" gridSize="10" guides="1" tooltips="1" connect="1" arrows="1" fold="1" page="1" pageScale="1" pageWidth="827" pageHeight="1169" math="0" shadow="0">
            <root>
                <mxCell id="DHMooveV-keyHzjIPeAs-0"/>
                <mxCell id="DHMooveV-keyHzjIPeAs-1" parent="DHMooveV-keyHzjIPeAs-0"/>
                <mxCell id="DHMooveV-keyHzjIPeAs-17" value="" style="rounded=0;whiteSpace=wrap;html=1;fontFamily=Helvetica;fontSize=14;strokeColor=none;fillColor=#FFFFFF;" parent="DHMooveV-keyHzjIPeAs-1" vertex="1">
                    <mxGeometry x="20" y="40" width="760" height="340" as="geometry"/>
                </mxCell>
                <mxCell id="DHMooveV-keyHzjIPeAs-2" value="&lt;font style=&quot;font-size: 14px&quot;&gt;version&lt;/font&gt;" style="rounded=0;whiteSpace=wrap;html=1;fillColor=#FFFFFF;strokeColor=#000000;fontColor=#000000;" parent="DHMooveV-keyHzjIPeAs-1" vertex="1">
                    <mxGeometry x="41" y="80" width="80" height="40" as="geometry"/>
                </mxCell>
                <mxCell id="DHMooveV-keyHzjIPeAs-3" value="&lt;font style=&quot;font-size: 14px&quot;&gt;ihl&lt;/font&gt;" style="rounded=0;whiteSpace=wrap;html=1;fillColor=#FFFFFF;strokeColor=#000000;fontColor=#000000;" parent="DHMooveV-keyHzjIPeAs-1" vertex="1">
                    <mxGeometry x="121" y="80" width="80" height="40" as="geometry"/>
                </mxCell>
                <mxCell id="DHMooveV-keyHzjIPeAs-4" value="&lt;font style=&quot;font-size: 14px&quot;&gt;tos&lt;/font&gt;" style="rounded=0;whiteSpace=wrap;html=1;fillColor=#FFFFFF;strokeColor=#000000;fontColor=#000000;" parent="DHMooveV-keyHzjIPeAs-1" vertex="1">
                    <mxGeometry x="201" y="80" width="160" height="40" as="geometry"/>
                </mxCell>
                <mxCell id="DHMooveV-keyHzjIPeAs-5" value="&lt;font size=&quot;3&quot;&gt;tot_len&lt;/font&gt;" style="rounded=0;whiteSpace=wrap;html=1;fillColor=#FFFFFF;strokeColor=#000000;fontColor=#000000;" parent="DHMooveV-keyHzjIPeAs-1" vertex="1">
                    <mxGeometry x="361" y="80" width="320" height="40" as="geometry"/>
                </mxCell>
                <mxCell id="DHMooveV-keyHzjIPeAs-6" value="&lt;font style=&quot;font-size: 14px&quot; face=&quot;Courier New&quot; color=&quot;#000000&quot;&gt;0&amp;nbsp; &amp;nbsp; &amp;nbsp; &amp;nbsp;3 4&amp;nbsp; &amp;nbsp; &amp;nbsp; &amp;nbsp;7 8&amp;nbsp; &amp;nbsp; &amp;nbsp; &amp;nbsp; &amp;nbsp; &amp;nbsp; &amp;nbsp; &amp;nbsp;15 16&amp;nbsp; &amp;nbsp; &amp;nbsp; &amp;nbsp; &amp;nbsp; &amp;nbsp; &amp;nbsp; &amp;nbsp; &amp;nbsp; &amp;nbsp; &amp;nbsp; &amp;nbsp; &amp;nbsp; &amp;nbsp; &amp;nbsp; &amp;nbsp; &amp;nbsp;31&lt;/font&gt;" style="text;html=1;align=left;verticalAlign=middle;resizable=0;points=[];autosize=1;strokeColor=none;fillColor=none;" parent="DHMooveV-keyHzjIPeAs-1" vertex="1">
                    <mxGeometry x="38" y="58" width="650" height="20" as="geometry"/>
                </mxCell>
                <mxCell id="DHMooveV-keyHzjIPeAs-7" value="&lt;font size=&quot;3&quot;&gt;id&lt;/font&gt;" style="rounded=0;whiteSpace=wrap;html=1;fillColor=#FFFFFF;strokeColor=#000000;fontColor=#000000;" parent="DHMooveV-keyHzjIPeAs-1" vertex="1">
                    <mxGeometry x="41" y="120" width="320" height="40" as="geometry"/>
                </mxCell>
                <mxCell id="DHMooveV-keyHzjIPeAs-8" value="&lt;font size=&quot;3&quot;&gt;frag_off&lt;/font&gt;" style="rounded=0;whiteSpace=wrap;html=1;fillColor=#FFFFFF;strokeColor=#000000;fontColor=#000000;" parent="DHMooveV-keyHzjIPeAs-1" vertex="1">
                    <mxGeometry x="361" y="120" width="320" height="40" as="geometry"/>
                </mxCell>
                <mxCell id="DHMooveV-keyHzjIPeAs-9" value="&lt;font style=&quot;font-size: 14px&quot;&gt;ttl&lt;/font&gt;" style="rounded=0;whiteSpace=wrap;html=1;fillColor=#FFFFFF;strokeColor=#000000;fontColor=#000000;" parent="DHMooveV-keyHzjIPeAs-1" vertex="1">
                    <mxGeometry x="41" y="160" width="160" height="40" as="geometry"/>
                </mxCell>
                <mxCell id="DHMooveV-keyHzjIPeAs-10" value="&lt;font style=&quot;font-size: 14px&quot;&gt;protocol&lt;/font&gt;" style="rounded=0;whiteSpace=wrap;html=1;fillColor=#FFFFFF;strokeColor=#000000;fontColor=#000000;" parent="DHMooveV-keyHzjIPeAs-1" vertex="1">
                    <mxGeometry x="201" y="160" width="160" height="40" as="geometry"/>
                </mxCell>
                <mxCell id="DHMooveV-keyHzjIPeAs-11" value="&lt;font size=&quot;3&quot;&gt;check&lt;/font&gt;" style="rounded=0;whiteSpace=wrap;html=1;fillColor=#FFFFFF;strokeColor=#000000;fontColor=#000000;" parent="DHMooveV-keyHzjIPeAs-1" vertex="1">
                    <mxGeometry x="361" y="160" width="320" height="40" as="geometry"/>
                </mxCell>
                <mxCell id="DHMooveV-keyHzjIPeAs-12" value="&lt;font size=&quot;3&quot;&gt;saddr&lt;/font&gt;" style="rounded=0;whiteSpace=wrap;html=1;fillColor=#FFFFFF;strokeColor=#000000;fontColor=#000000;" parent="DHMooveV-keyHzjIPeAs-1" vertex="1">
                    <mxGeometry x="41" y="200" width="640" height="40" as="geometry"/>
                </mxCell>
                <mxCell id="DHMooveV-keyHzjIPeAs-13" value="&lt;font size=&quot;3&quot;&gt;daddr&lt;/font&gt;" style="rounded=0;whiteSpace=wrap;html=1;fillColor=#FFFFFF;strokeColor=#000000;fontColor=#000000;" parent="DHMooveV-keyHzjIPeAs-1" vertex="1">
                    <mxGeometry x="41" y="240" width="640" height="40" as="geometry"/>
                </mxCell>
                <mxCell id="DHMooveV-keyHzjIPeAs-14" value="&lt;font size=&quot;3&quot;&gt;options(0 -- 40 bytes)&lt;/font&gt;" style="rounded=0;whiteSpace=wrap;html=1;fillColor=#FFFFFF;strokeColor=#000000;fontColor=#000000;" parent="DHMooveV-keyHzjIPeAs-1" vertex="1">
                    <mxGeometry x="41" y="280" width="640" height="80" as="geometry"/>
                </mxCell>
                <mxCell id="DHMooveV-keyHzjIPeAs-15" value="" style="shape=curlyBracket;whiteSpace=wrap;html=1;rounded=1;flipH=1;fontFamily=Courier New;fontSize=14;strokeColor=#000000;strokeWidth=2;" parent="DHMooveV-keyHzjIPeAs-1" vertex="1">
                    <mxGeometry x="686" y="80" width="20" height="200" as="geometry"/>
                </mxCell>
                <mxCell id="DHMooveV-keyHzjIPeAs-16" value="&lt;font face=&quot;Helvetica&quot; color=&quot;#000000&quot;&gt;20 bytes&lt;/font&gt;" style="text;html=1;align=center;verticalAlign=middle;resizable=0;points=[];autosize=1;strokeColor=none;fillColor=none;fontSize=14;fontFamily=Courier New;" parent="DHMooveV-keyHzjIPeAs-1" vertex="1">
                    <mxGeometry x="702" y="171" width="70" height="20" as="geometry"/>
                </mxCell>
            </root>
        </mxGraphModel>
    </diagram>
    <diagram id="FLMEIoMX8uv--oBVw_Oz" name="representation of a network packet">
        <mxGraphModel dx="993" dy="733" grid="1" gridSize="10" guides="1" tooltips="1" connect="1" arrows="1" fold="1" page="1" pageScale="1" pageWidth="827" pageHeight="1169" math="0" shadow="0">
            <root>
                <mxCell id="r3RcNXT-azHM2pUDs-xm-0"/>
                <mxCell id="r3RcNXT-azHM2pUDs-xm-1" parent="r3RcNXT-azHM2pUDs-xm-0"/>
                <mxCell id="r3RcNXT-azHM2pUDs-xm-2" value="" style="rounded=0;whiteSpace=wrap;html=1;fontSize=14;fillColor=#FFFFFF;strokeColor=none;" parent="r3RcNXT-azHM2pUDs-xm-1" vertex="1">
                    <mxGeometry x="100" y="180" width="640" height="80" as="geometry"/>
                </mxCell>
                <mxCell id="r3RcNXT-azHM2pUDs-xm-3" value="&lt;font style=&quot;font-size: 14px&quot; color=&quot;#000000&quot;&gt;Ethernet Header&lt;/font&gt;" style="rounded=0;whiteSpace=wrap;html=1;strokeColor=#000000;fillColor=none;" parent="r3RcNXT-azHM2pUDs-xm-1" vertex="1">
                    <mxGeometry x="120" y="200" width="120" height="40" as="geometry"/>
                </mxCell>
                <mxCell id="r3RcNXT-azHM2pUDs-xm-4" value="&lt;font color=&quot;#000000&quot;&gt;Ethernet Protocol Header&lt;/font&gt;" style="rounded=0;whiteSpace=wrap;html=1;fontSize=14;strokeColor=#000000;fillColor=none;" parent="r3RcNXT-azHM2pUDs-xm-1" vertex="1">
                    <mxGeometry x="240" y="200" width="200" height="40" as="geometry"/>
                </mxCell>
                <mxCell id="r3RcNXT-azHM2pUDs-xm-5" value="&lt;font color=&quot;#000000&quot;&gt;Transport Protocol Header&lt;/font&gt;" style="rounded=0;whiteSpace=wrap;html=1;fontSize=14;strokeColor=#000000;fillColor=none;" parent="r3RcNXT-azHM2pUDs-xm-1" vertex="1">
                    <mxGeometry x="440" y="200" width="200" height="40" as="geometry"/>
                </mxCell>
                <mxCell id="r3RcNXT-azHM2pUDs-xm-6" value="&lt;font style=&quot;font-size: 14px&quot; color=&quot;#000000&quot;&gt;Data&lt;/font&gt;" style="rounded=0;whiteSpace=wrap;html=1;strokeColor=#000000;fillColor=none;" parent="r3RcNXT-azHM2pUDs-xm-1" vertex="1">
                    <mxGeometry x="640" y="200" width="80" height="40" as="geometry"/>
                </mxCell>
            </root>
        </mxGraphModel>
    </diagram>
    <diagram id="LYj6hifyF-ziOyOi2kfr" name="app_receive_data_with_raw_socket">
        <mxGraphModel dx="993" dy="733" grid="1" gridSize="10" guides="1" tooltips="1" connect="1" arrows="1" fold="1" page="1" pageScale="1" pageWidth="827" pageHeight="1169" math="0" shadow="0">
            <root>
                <mxCell id="8yb0iqfsgr8Nk_YObrAN-0"/>
                <mxCell id="8yb0iqfsgr8Nk_YObrAN-1" parent="8yb0iqfsgr8Nk_YObrAN-0"/>
                <mxCell id="8yb0iqfsgr8Nk_YObrAN-2" value="" style="rounded=0;whiteSpace=wrap;html=1;labelBackgroundColor=#66B2FF;fontSize=14;fillColor=#FFFFFF;strokeColor=none;" parent="8yb0iqfsgr8Nk_YObrAN-1" vertex="1">
                    <mxGeometry x="170" y="100" width="460" height="360" as="geometry"/>
                </mxCell>
                <mxCell id="8yb0iqfsgr8Nk_YObrAN-3" value="&lt;font style=&quot;font-size: 14px&quot; color=&quot;#000000&quot;&gt;User Application&lt;/font&gt;" style="rounded=0;whiteSpace=wrap;html=1;fillColor=#99CCFF;strokeColor=#000000;" parent="8yb0iqfsgr8Nk_YObrAN-1" vertex="1">
                    <mxGeometry x="200" y="120" width="400" height="40" as="geometry"/>
                </mxCell>
                <mxCell id="8yb0iqfsgr8Nk_YObrAN-4" value="&lt;font style=&quot;font-size: 14px&quot; color=&quot;#000000&quot;&gt;&amp;nbsp; Socket Interface&lt;/font&gt;" style="rounded=0;whiteSpace=wrap;html=1;align=left;fillColor=#99CCFF;strokeColor=#000000;" parent="8yb0iqfsgr8Nk_YObrAN-1" vertex="1">
                    <mxGeometry x="200" y="159" width="400" height="121" as="geometry"/>
                </mxCell>
                <mxCell id="8yb0iqfsgr8Nk_YObrAN-5" value="&lt;font style=&quot;font-size: 14px&quot; color=&quot;#000000&quot;&gt;Transport Layer Processing&lt;/font&gt;" style="rounded=0;whiteSpace=wrap;html=1;fillColor=#99CCFF;strokeColor=#000000;" parent="8yb0iqfsgr8Nk_YObrAN-1" vertex="1">
                    <mxGeometry x="200" y="280" width="200" height="40" as="geometry"/>
                </mxCell>
                <mxCell id="8yb0iqfsgr8Nk_YObrAN-6" value="&lt;font style=&quot;font-size: 14px&quot; color=&quot;#000000&quot;&gt;Network Layer Processing&lt;/font&gt;" style="rounded=0;whiteSpace=wrap;html=1;fillColor=#99CCFF;strokeColor=#000000;" parent="8yb0iqfsgr8Nk_YObrAN-1" vertex="1">
                    <mxGeometry x="200" y="320" width="200" height="40" as="geometry"/>
                </mxCell>
                <mxCell id="8yb0iqfsgr8Nk_YObrAN-7" value="&lt;font style=&quot;font-size: 14px&quot; color=&quot;#000000&quot;&gt;Data Link Layer Processing&lt;/font&gt;" style="rounded=0;whiteSpace=wrap;html=1;fillColor=#99CCFF;strokeColor=#000000;" parent="8yb0iqfsgr8Nk_YObrAN-1" vertex="1">
                    <mxGeometry x="200" y="360" width="200" height="40" as="geometry"/>
                </mxCell>
                <mxCell id="8yb0iqfsgr8Nk_YObrAN-8" value="" style="rounded=0;whiteSpace=wrap;html=1;fillColor=#99CCFF;strokeColor=#000000;" parent="8yb0iqfsgr8Nk_YObrAN-1" vertex="1">
                    <mxGeometry x="400" y="280" width="200" height="120" as="geometry"/>
                </mxCell>
                <mxCell id="8yb0iqfsgr8Nk_YObrAN-9" value="&lt;font style=&quot;font-size: 14px&quot; color=&quot;#000000&quot;&gt;NIC Driver&lt;/font&gt;" style="rounded=0;whiteSpace=wrap;html=1;fillColor=#99CCFF;strokeColor=#000000;" parent="8yb0iqfsgr8Nk_YObrAN-1" vertex="1">
                    <mxGeometry x="200" y="400" width="400" height="40" as="geometry"/>
                </mxCell>
                <mxCell id="8yb0iqfsgr8Nk_YObrAN-10" style="edgeStyle=elbowEdgeStyle;html=1;exitX=0.5;exitY=1;exitDx=0;exitDy=0;fontSize=14;strokeWidth=2;endArrow=none;endFill=0;startArrow=classic;startFill=1;strokeColor=#000000;" parent="8yb0iqfsgr8Nk_YObrAN-1" source="8yb0iqfsgr8Nk_YObrAN-11" edge="1">
                    <mxGeometry relative="1" as="geometry">
                        <mxPoint x="400" y="380" as="targetPoint"/>
                        <Array as="points">
                            <mxPoint x="505" y="300"/>
                            <mxPoint x="450" y="390"/>
                            <mxPoint x="505" y="300"/>
                        </Array>
                    </mxGeometry>
                </mxCell>
                <mxCell id="8yb0iqfsgr8Nk_YObrAN-11" value="&lt;font style=&quot;font-size: 14px&quot; color=&quot;#000000&quot;&gt;Raw Socket&lt;/font&gt;" style="rounded=0;whiteSpace=wrap;html=1;fillColor=#007FFF;strokeColor=none;" parent="8yb0iqfsgr8Nk_YObrAN-1" vertex="1">
                    <mxGeometry x="440" y="180" width="130" height="40" as="geometry"/>
                </mxCell>
            </root>
        </mxGraphModel>
    </diagram>
    <diagram id="9u6zimstRXeZO1QwXPuI" name="receiving_data_in_app_with_socket">
        <mxGraphModel dx="993" dy="733" grid="1" gridSize="10" guides="1" tooltips="1" connect="1" arrows="1" fold="1" page="1" pageScale="1" pageWidth="827" pageHeight="1169" math="0" shadow="0">
            <root>
                <mxCell id="kOp343PaP1bm_xIr-tj_-0"/>
                <mxCell id="kOp343PaP1bm_xIr-tj_-1" parent="kOp343PaP1bm_xIr-tj_-0"/>
                <mxCell id="kOp343PaP1bm_xIr-tj_-2" value="" style="rounded=0;whiteSpace=wrap;html=1;fontSize=18;strokeColor=none;fillColor=#FFFFFF;" parent="kOp343PaP1bm_xIr-tj_-1" vertex="1">
                    <mxGeometry x="20" y="60" width="740" height="390" as="geometry"/>
                </mxCell>
                <mxCell id="kOp343PaP1bm_xIr-tj_-3" style="edgeStyle=none;html=1;exitX=0.5;exitY=1;exitDx=0;exitDy=0;entryX=0.5;entryY=0;entryDx=0;entryDy=0;strokeWidth=2;strokeColor=#000000;endArrow=none;endFill=0;startArrow=classic;startFill=1;" parent="kOp343PaP1bm_xIr-tj_-1" source="kOp343PaP1bm_xIr-tj_-4" target="kOp343PaP1bm_xIr-tj_-6" edge="1">
                    <mxGeometry relative="1" as="geometry"/>
                </mxCell>
                <mxCell id="kOp343PaP1bm_xIr-tj_-4" value="&lt;font size=&quot;3&quot; color=&quot;#000000&quot;&gt;Data&lt;/font&gt;" style="rounded=0;whiteSpace=wrap;html=1;fillColor=#FFFFFF;strokeColor=#000000;" parent="kOp343PaP1bm_xIr-tj_-1" vertex="1">
                    <mxGeometry x="480" y="80" width="120" height="40" as="geometry"/>
                </mxCell>
                <mxCell id="kOp343PaP1bm_xIr-tj_-5" style="edgeStyle=none;html=1;exitX=0.5;exitY=1;exitDx=0;exitDy=0;entryX=0.5;entryY=0;entryDx=0;entryDy=0;strokeWidth=2;strokeColor=#000000;endArrow=none;endFill=0;startArrow=classic;startFill=1;" parent="kOp343PaP1bm_xIr-tj_-1" source="kOp343PaP1bm_xIr-tj_-6" target="kOp343PaP1bm_xIr-tj_-9" edge="1">
                    <mxGeometry relative="1" as="geometry"/>
                </mxCell>
                <mxCell id="kOp343PaP1bm_xIr-tj_-6" value="&lt;font size=&quot;3&quot; color=&quot;#000000&quot;&gt;Data&lt;/font&gt;" style="rounded=0;whiteSpace=wrap;html=1;fillColor=#FFFFFF;strokeColor=#000000;" parent="kOp343PaP1bm_xIr-tj_-1" vertex="1">
                    <mxGeometry x="480" y="160" width="120" height="40" as="geometry"/>
                </mxCell>
                <mxCell id="kOp343PaP1bm_xIr-tj_-7" value="&lt;font size=&quot;3&quot; color=&quot;#000000&quot;&gt;TCP/UDP Header&lt;/font&gt;" style="rounded=0;whiteSpace=wrap;html=1;strokeColor=#000000;fillColor=#FFFFFF;" parent="kOp343PaP1bm_xIr-tj_-1" vertex="1">
                    <mxGeometry x="320" y="160" width="160" height="40" as="geometry"/>
                </mxCell>
                <mxCell id="kOp343PaP1bm_xIr-tj_-8" style="edgeStyle=none;html=1;exitX=0.5;exitY=1;exitDx=0;exitDy=0;entryX=0.5;entryY=0;entryDx=0;entryDy=0;strokeColor=#000000;strokeWidth=2;endArrow=none;endFill=0;startArrow=classic;startFill=1;" parent="kOp343PaP1bm_xIr-tj_-1" source="kOp343PaP1bm_xIr-tj_-9" target="kOp343PaP1bm_xIr-tj_-13" edge="1">
                    <mxGeometry relative="1" as="geometry"/>
                </mxCell>
                <mxCell id="kOp343PaP1bm_xIr-tj_-9" value="&lt;font size=&quot;3&quot; color=&quot;#000000&quot;&gt;Data&lt;/font&gt;" style="rounded=0;whiteSpace=wrap;html=1;fillColor=#FFFFFF;strokeColor=#000000;" parent="kOp343PaP1bm_xIr-tj_-1" vertex="1">
                    <mxGeometry x="480" y="240" width="120" height="40" as="geometry"/>
                </mxCell>
                <mxCell id="kOp343PaP1bm_xIr-tj_-10" value="&lt;font size=&quot;3&quot; color=&quot;#000000&quot;&gt;TCP/UDP Header&lt;/font&gt;" style="rounded=0;whiteSpace=wrap;html=1;strokeColor=#000000;fillColor=#FFFFFF;" parent="kOp343PaP1bm_xIr-tj_-1" vertex="1">
                    <mxGeometry x="320" y="240" width="160" height="40" as="geometry"/>
                </mxCell>
                <mxCell id="kOp343PaP1bm_xIr-tj_-11" value="&lt;font size=&quot;3&quot; color=&quot;#000000&quot;&gt;IP Header&lt;/font&gt;" style="rounded=0;whiteSpace=wrap;html=1;strokeColor=#000000;fillColor=#FFFFFF;" parent="kOp343PaP1bm_xIr-tj_-1" vertex="1">
                    <mxGeometry x="200" y="240" width="120" height="40" as="geometry"/>
                </mxCell>
                <mxCell id="kOp343PaP1bm_xIr-tj_-12" style="edgeStyle=none;html=1;exitX=0.5;exitY=1;exitDx=0;exitDy=0;entryX=0.496;entryY=-0.2;entryDx=0;entryDy=0;entryPerimeter=0;fontSize=14;strokeWidth=2;strokeColor=#000000;endArrow=none;endFill=0;startArrow=classic;startFill=1;" parent="kOp343PaP1bm_xIr-tj_-1" source="kOp343PaP1bm_xIr-tj_-13" target="kOp343PaP1bm_xIr-tj_-21" edge="1">
                    <mxGeometry relative="1" as="geometry"/>
                </mxCell>
                <mxCell id="kOp343PaP1bm_xIr-tj_-13" value="&lt;font size=&quot;3&quot; color=&quot;#000000&quot;&gt;Data&lt;/font&gt;" style="rounded=0;whiteSpace=wrap;html=1;strokeColor=#000000;fillColor=#FFFFFF;" parent="kOp343PaP1bm_xIr-tj_-1" vertex="1">
                    <mxGeometry x="480" y="320" width="120" height="40" as="geometry"/>
                </mxCell>
                <mxCell id="kOp343PaP1bm_xIr-tj_-14" value="&lt;font size=&quot;3&quot; color=&quot;#000000&quot;&gt;TCP/UDP Header&lt;/font&gt;" style="rounded=0;whiteSpace=wrap;html=1;strokeColor=#000000;fillColor=#FFFFFF;" parent="kOp343PaP1bm_xIr-tj_-1" vertex="1">
                    <mxGeometry x="320" y="320" width="160" height="40" as="geometry"/>
                </mxCell>
                <mxCell id="kOp343PaP1bm_xIr-tj_-15" value="&lt;font size=&quot;3&quot; color=&quot;#000000&quot;&gt;IP Header&lt;/font&gt;" style="rounded=0;whiteSpace=wrap;html=1;strokeColor=#000000;fillColor=#FFFFFF;" parent="kOp343PaP1bm_xIr-tj_-1" vertex="1">
                    <mxGeometry x="200" y="320" width="120" height="40" as="geometry"/>
                </mxCell>
                <mxCell id="kOp343PaP1bm_xIr-tj_-16" value="&lt;font size=&quot;3&quot; color=&quot;#000000&quot;&gt;Ethernet Header&lt;/font&gt;" style="rounded=0;whiteSpace=wrap;html=1;fillColor=#FFFFFF;strokeColor=#000000;" parent="kOp343PaP1bm_xIr-tj_-1" vertex="1">
                    <mxGeometry x="40" y="320" width="160" height="40" as="geometry"/>
                </mxCell>
                <mxCell id="kOp343PaP1bm_xIr-tj_-17" value="&lt;font color=&quot;#000000&quot;&gt;Application&lt;/font&gt;" style="text;html=1;align=left;verticalAlign=middle;resizable=0;points=[];autosize=1;strokeColor=none;fillColor=none;fontSize=14;" parent="kOp343PaP1bm_xIr-tj_-1" vertex="1">
                    <mxGeometry x="640" y="90" width="80" height="20" as="geometry"/>
                </mxCell>
                <mxCell id="kOp343PaP1bm_xIr-tj_-18" value="&lt;font color=&quot;#000000&quot;&gt;Transport Layer&lt;/font&gt;" style="text;html=1;align=left;verticalAlign=middle;resizable=0;points=[];autosize=1;strokeColor=none;fillColor=none;fontSize=14;" parent="kOp343PaP1bm_xIr-tj_-1" vertex="1">
                    <mxGeometry x="640" y="170" width="110" height="20" as="geometry"/>
                </mxCell>
                <mxCell id="kOp343PaP1bm_xIr-tj_-19" value="&lt;font color=&quot;#000000&quot;&gt;Network Layer&lt;/font&gt;" style="text;html=1;align=left;verticalAlign=middle;resizable=0;points=[];autosize=1;strokeColor=none;fillColor=none;fontSize=14;" parent="kOp343PaP1bm_xIr-tj_-1" vertex="1">
                    <mxGeometry x="640" y="250" width="110" height="20" as="geometry"/>
                </mxCell>
                <mxCell id="kOp343PaP1bm_xIr-tj_-20" value="&lt;font color=&quot;#000000&quot;&gt;Data Link Layer&lt;/font&gt;" style="text;html=1;align=left;verticalAlign=middle;resizable=0;points=[];autosize=1;strokeColor=none;fillColor=none;fontSize=14;" parent="kOp343PaP1bm_xIr-tj_-1" vertex="1">
                    <mxGeometry x="640" y="330" width="110" height="20" as="geometry"/>
                </mxCell>
                <mxCell id="kOp343PaP1bm_xIr-tj_-21" value="&lt;font style=&quot;font-size: 18px&quot; color=&quot;#000000&quot;&gt;NIC Driver&lt;/font&gt;" style="text;html=1;align=center;verticalAlign=middle;resizable=0;points=[];autosize=1;strokeColor=none;fillColor=none;" parent="kOp343PaP1bm_xIr-tj_-1" vertex="1">
                    <mxGeometry x="490" y="410" width="100" height="20" as="geometry"/>
                </mxCell>
            </root>
        </mxGraphModel>
    </diagram>
    <diagram id="ld85nW_0cYD5aqHjIyk8" name="sending_data_from_app_with_socket">
        <mxGraphModel dx="993" dy="733" grid="1" gridSize="10" guides="1" tooltips="1" connect="1" arrows="1" fold="1" page="1" pageScale="1" pageWidth="827" pageHeight="1169" math="0" shadow="0">
            <root>
                <mxCell id="0"/>
                <mxCell id="1" parent="0"/>
                <mxCell id="2" value="" style="rounded=0;whiteSpace=wrap;html=1;fontSize=18;strokeColor=none;fillColor=#FFFFFF;" parent="1" vertex="1">
                    <mxGeometry x="20" y="60" width="740" height="390" as="geometry"/>
                </mxCell>
                <mxCell id="3" style="edgeStyle=none;html=1;exitX=0.5;exitY=1;exitDx=0;exitDy=0;entryX=0.5;entryY=0;entryDx=0;entryDy=0;strokeWidth=2;strokeColor=#000000;" parent="1" source="4" target="6" edge="1">
                    <mxGeometry relative="1" as="geometry"/>
                </mxCell>
                <mxCell id="4" value="&lt;font size=&quot;3&quot; color=&quot;#000000&quot;&gt;Data&lt;/font&gt;" style="rounded=0;whiteSpace=wrap;html=1;fillColor=#FFFFFF;strokeColor=#000000;" parent="1" vertex="1">
                    <mxGeometry x="480" y="80" width="120" height="40" as="geometry"/>
                </mxCell>
                <mxCell id="5" style="edgeStyle=none;html=1;exitX=0.5;exitY=1;exitDx=0;exitDy=0;entryX=0.5;entryY=0;entryDx=0;entryDy=0;strokeWidth=2;strokeColor=#000000;" parent="1" source="6" target="9" edge="1">
                    <mxGeometry relative="1" as="geometry"/>
                </mxCell>
                <mxCell id="6" value="&lt;font size=&quot;3&quot; color=&quot;#000000&quot;&gt;Data&lt;/font&gt;" style="rounded=0;whiteSpace=wrap;html=1;fillColor=#FFFFFF;strokeColor=#000000;" parent="1" vertex="1">
                    <mxGeometry x="480" y="160" width="120" height="40" as="geometry"/>
                </mxCell>
                <mxCell id="7" value="&lt;font size=&quot;3&quot; color=&quot;#000000&quot;&gt;TCP/UDP Header&lt;/font&gt;" style="rounded=0;whiteSpace=wrap;html=1;strokeColor=#000000;fillColor=#FFFFFF;" parent="1" vertex="1">
                    <mxGeometry x="320" y="160" width="160" height="40" as="geometry"/>
                </mxCell>
                <mxCell id="8" style="edgeStyle=none;html=1;exitX=0.5;exitY=1;exitDx=0;exitDy=0;entryX=0.5;entryY=0;entryDx=0;entryDy=0;strokeColor=#000000;strokeWidth=2;" parent="1" source="9" target="13" edge="1">
                    <mxGeometry relative="1" as="geometry"/>
                </mxCell>
                <mxCell id="9" value="&lt;font size=&quot;3&quot; color=&quot;#000000&quot;&gt;Data&lt;/font&gt;" style="rounded=0;whiteSpace=wrap;html=1;fillColor=#FFFFFF;strokeColor=#000000;" parent="1" vertex="1">
                    <mxGeometry x="480" y="240" width="120" height="40" as="geometry"/>
                </mxCell>
                <mxCell id="10" value="&lt;font size=&quot;3&quot; color=&quot;#000000&quot;&gt;TCP/UDP Header&lt;/font&gt;" style="rounded=0;whiteSpace=wrap;html=1;strokeColor=#000000;fillColor=#FFFFFF;" parent="1" vertex="1">
                    <mxGeometry x="320" y="240" width="160" height="40" as="geometry"/>
                </mxCell>
                <mxCell id="11" value="&lt;font size=&quot;3&quot; color=&quot;#000000&quot;&gt;IP Header&lt;/font&gt;" style="rounded=0;whiteSpace=wrap;html=1;strokeColor=#000000;fillColor=#FFFFFF;" parent="1" vertex="1">
                    <mxGeometry x="200" y="240" width="120" height="40" as="geometry"/>
                </mxCell>
                <mxCell id="12" style="edgeStyle=none;html=1;exitX=0.5;exitY=1;exitDx=0;exitDy=0;entryX=0.496;entryY=-0.2;entryDx=0;entryDy=0;entryPerimeter=0;fontSize=14;strokeWidth=2;strokeColor=#000000;" parent="1" source="13" target="21" edge="1">
                    <mxGeometry relative="1" as="geometry"/>
                </mxCell>
                <mxCell id="13" value="&lt;font size=&quot;3&quot; color=&quot;#000000&quot;&gt;Data&lt;/font&gt;" style="rounded=0;whiteSpace=wrap;html=1;strokeColor=#000000;fillColor=#FFFFFF;" parent="1" vertex="1">
                    <mxGeometry x="480" y="320" width="120" height="40" as="geometry"/>
                </mxCell>
                <mxCell id="14" value="&lt;font size=&quot;3&quot; color=&quot;#000000&quot;&gt;TCP/UDP Header&lt;/font&gt;" style="rounded=0;whiteSpace=wrap;html=1;strokeColor=#000000;fillColor=#FFFFFF;" parent="1" vertex="1">
                    <mxGeometry x="320" y="320" width="160" height="40" as="geometry"/>
                </mxCell>
                <mxCell id="15" value="&lt;font size=&quot;3&quot; color=&quot;#000000&quot;&gt;IP Header&lt;/font&gt;" style="rounded=0;whiteSpace=wrap;html=1;strokeColor=#000000;fillColor=#FFFFFF;" parent="1" vertex="1">
                    <mxGeometry x="200" y="320" width="120" height="40" as="geometry"/>
                </mxCell>
                <mxCell id="16" value="&lt;font size=&quot;3&quot; color=&quot;#000000&quot;&gt;Ethernet Header&lt;/font&gt;" style="rounded=0;whiteSpace=wrap;html=1;fillColor=#FFFFFF;strokeColor=#000000;" parent="1" vertex="1">
                    <mxGeometry x="40" y="320" width="160" height="40" as="geometry"/>
                </mxCell>
                <mxCell id="17" value="&lt;font color=&quot;#000000&quot;&gt;Application&lt;/font&gt;" style="text;html=1;align=left;verticalAlign=middle;resizable=0;points=[];autosize=1;strokeColor=none;fillColor=none;fontSize=14;" parent="1" vertex="1">
                    <mxGeometry x="640" y="90" width="80" height="20" as="geometry"/>
                </mxCell>
                <mxCell id="18" value="&lt;font color=&quot;#000000&quot;&gt;Transport Layer&lt;/font&gt;" style="text;html=1;align=left;verticalAlign=middle;resizable=0;points=[];autosize=1;strokeColor=none;fillColor=none;fontSize=14;" parent="1" vertex="1">
                    <mxGeometry x="640" y="170" width="110" height="20" as="geometry"/>
                </mxCell>
                <mxCell id="19" value="&lt;font color=&quot;#000000&quot;&gt;Network Layer&lt;/font&gt;" style="text;html=1;align=left;verticalAlign=middle;resizable=0;points=[];autosize=1;strokeColor=none;fillColor=none;fontSize=14;" parent="1" vertex="1">
                    <mxGeometry x="640" y="250" width="110" height="20" as="geometry"/>
                </mxCell>
                <mxCell id="20" value="&lt;font color=&quot;#000000&quot;&gt;Data Link Layer&lt;/font&gt;" style="text;html=1;align=left;verticalAlign=middle;resizable=0;points=[];autosize=1;strokeColor=none;fillColor=none;fontSize=14;" parent="1" vertex="1">
                    <mxGeometry x="640" y="330" width="110" height="20" as="geometry"/>
                </mxCell>
                <mxCell id="21" value="&lt;font style=&quot;font-size: 18px&quot; color=&quot;#000000&quot;&gt;NIC Driver&lt;/font&gt;" style="text;html=1;align=center;verticalAlign=middle;resizable=0;points=[];autosize=1;strokeColor=none;fillColor=none;" parent="1" vertex="1">
                    <mxGeometry x="490" y="410" width="100" height="20" as="geometry"/>
                </mxCell>
            </root>
        </mxGraphModel>
    </diagram>
</mxfile>